<mxfile host="app.diagrams.net" modified="2024-05-13T02:42:10.547Z" agent="Mozilla/5.0 (Windows NT 10.0; Win64; x64) AppleWebKit/537.36 (KHTML, like Gecko) Chrome/124.0.0.0 Safari/537.36" version="24.4.0" etag="xbEflbVg_MYo0BB-fBog" type="github">
  <diagram name="第 1 页" id="Uc3VLulO2O6ez5aALafO">
    <mxGraphModel>
      <root>
        <mxCell id="0" />
        <mxCell id="1" parent="0" />
      </root>
    </mxGraphModel>
  </diagram>
</mxfile>
